<svg xmlns="http://www.w3.org/2000/svg" viewBox="0 0 686.89 150.5"><defs><style>.cls-1{fill:#632240;}</style></defs><g id="Layer_2" data-name="Layer 2"><g id="Layer_1-2" data-name="Layer 1"><path class="cls-1" d="M144.18,45.17,104,150.5,64.41,45.17Z"/><path class="cls-1" d="M90.84,138.47,22.48,45.07c12,0,22.71-.09,33.46.16,1,0,2.27,2.07,2.78,3.42q13.41,35.4,26.64,70.86l6.78,18Z"/><path class="cls-1" d="M185.74,45.08,116.83,139.4l-1.14-.66c3.55-9.44,7.07-18.89,10.65-28.32C134.1,90,142,69.66,149.63,49.22c1.17-3.12,2.68-4.36,6.21-4.25C165.44,45.28,175.06,45.08,185.74,45.08Z"/><path class="cls-1" d="M137.5,38.42H70.86l33.5-35Z"/><path class="cls-1" d="M60.81,38.31,36.81.12h60C85.36,12.24,73.46,24.87,60.81,38.31Z"/><path class="cls-1" d="M111.62,0h59.64c-7.79,12.71-15.36,25-23,37.57Z"/><path class="cls-1" d="M155.35,38.25,176.81,3.52l31.72,34.73Z"/><path class="cls-1" d="M0,38.24C10.59,26.51,20.68,15.36,31.31,3.6,38.64,15.32,45.66,26.51,53,38.24Z"/><path class="cls-1" d="M2.25,45.07c4.63,0,7.88-.13,11.11.08a4.52,4.52,0,0,1,2.94,1.69q20.69,28.44,41.22,57c.2.29.25.69-.37,1.65Z"/><path class="cls-1" d="M150.31,104.51c6.61-9.21,13.19-18.44,19.84-27.62s13.54-18.3,20-27.64c2.19-3.14,4.49-4.83,8.41-4.23,2,.3,4.1,0,7.4,0L151.2,105.33Z"/><path class="cls-1" d="M308.26,74V36.3L291.54,59.55h-1.69L273.34,36.3V74h-7.87V24.84h9.14l16.23,23.05,16.16-23h9.13V74Z"/><path class="cls-1" d="M332.78,24.77l13.56,21.71,14-21.71h9.49v.35L350.28,53.79V74h-7.87V53.79l-19-28.67v-.35Z"/><path class="cls-1" d="M410.49,31.66l-6,4a11.7,11.7,0,0,0-5-4,18.33,18.33,0,0,0-7.13-1.51,15.12,15.12,0,0,0-8.22,2A6.17,6.17,0,0,0,381,37.63,4.92,4.92,0,0,0,384,42.34a31.69,31.69,0,0,0,8.88,2.32,63.32,63.32,0,0,1,7.45,1.47,28.37,28.37,0,0,1,6.12,2.5,11.44,11.44,0,0,1,4.6,4.49,13.81,13.81,0,0,1,1.58,6.78,12.91,12.91,0,0,1-3.06,8.79,16.55,16.55,0,0,1-7.45,5,31.52,31.52,0,0,1-9.87,1.44q-15.1,0-21.15-11.17L377.05,60q4.77,8.09,15.31,8.08a23.06,23.06,0,0,0,5.9-.7,10,10,0,0,0,4.61-2.63,6.57,6.57,0,0,0,1.93-4.82,5.86,5.86,0,0,0-3.34-5.51,27.32,27.32,0,0,0-9.24-2.57,55.66,55.66,0,0,1-5.79-1,34.64,34.64,0,0,1-5.1-1.62A14.12,14.12,0,0,1,377,46.69a11.53,11.53,0,0,1-2.74-3.82,12.64,12.64,0,0,1-1.09-5.38,12.25,12.25,0,0,1,6.18-10.89,23.49,23.49,0,0,1,6.05-2.42,27.59,27.59,0,0,1,6.74-.81Q405.29,23.37,410.49,31.66Z"/><path class="cls-1" d="M432.69,74V31.87H416.53v-7.1h40.19v7.1H440.63V74Z"/><path class="cls-1" d="M471.9,74h-7.8V24.77h7.8Z"/><path class="cls-1" d="M523.05,74l-4.71-10.33H491.71L487.07,74h-8.36l22.06-49.19h8.58L531.41,74Zm-7.59-17.5-10.4-23.4-10.4,23.4Z"/><path class="cls-1" d="M569.56,24.84h7.8V53.58q0,10.47-6,16t-15.39,5.24a20.91,20.91,0,0,1-14.51-5.76q-5.79-5.55-5.8-15.53V24.84h7.8V53.58q0,6.54,3.44,10.19a12.6,12.6,0,0,0,9.07,3.86,12.23,12.23,0,0,0,9.83-3.41q3.79-3.75,3.8-10.64Z"/><path class="cls-1" d="M630.69,72.55l.84,1.41h-9.21l-15-17H597V74h-7.87V24.7l11.45,0,11.46,0q8.14,0,12.75,4.75a15.7,15.7,0,0,1,4.6,11.34A16.08,16.08,0,0,1,626.08,51Q622.81,55.2,616,56.18ZM612,31.94H597V49.79h15c3.1,0,5.44-.85,7-2.53A8.78,8.78,0,0,0,621.34,41,9.34,9.34,0,0,0,619,34.64Q616.57,31.94,612,31.94Z"/><path class="cls-1" d="M678.53,74l-4.71-10.33H647.2L642.56,74H634.2l22.06-49.19h8.57L686.89,74Zm-7.59-17.5-10.39-23.4-10.4,23.4Z"/><path class="cls-1" d="M276.1,95.91h14.36v18.75a12,12,0,0,1-3.47,9,13.8,13.8,0,0,1-18,0,11.86,11.86,0,0,1-3.49-8.94h3.08a8.87,8.87,0,0,0,9.39,9.4,9.4,9.4,0,0,0,6.86-2.53,9.29,9.29,0,0,0,2.59-7V98.77H276.1Z"/><path class="cls-1" d="M320.67,123.75v2.9h-22V95.91h21.65v2.9H301.7v11h17.74v2.86H301.7v11.06Z"/><path class="cls-1" d="M369.2,95.91l-10.9,30.83h-3.11l-4.61-13.22-3.74-11.63-3.68,11.59-4.62,13.26h-3.16L324.49,95.91H328l9,26.61,9-26.61h1.93l9,26.61,9-26.61Z"/><path class="cls-1" d="M396.86,123.75v2.9h-22V95.91h21.64v2.9H377.89v11h17.74v2.86H377.89v11.06Z"/><path class="cls-1" d="M403.58,95.91h3.07v27.84h17.08v2.9H403.58Z"/><path class="cls-1" d="M450.52,100.79l-2.59,1.45q-2.37-3.83-8.83-3.91a16.61,16.61,0,0,0-3,.26,13.62,13.62,0,0,0-2.75.84,4.84,4.84,0,0,0-2.13,1.73,4.92,4.92,0,0,0-.79,2.79,3.55,3.55,0,0,0,.49,1.87,4.47,4.47,0,0,0,1.18,1.33,7,7,0,0,0,2,1,20,20,0,0,0,2.35.68c.73.16,1.65.35,2.76.55s1.93.34,2.61.48,1.5.35,2.44.62a16.25,16.25,0,0,1,2.33.81,12.36,12.36,0,0,1,1.91,1.1,6.3,6.3,0,0,1,1.58,1.49,6.84,6.84,0,0,1,1,2,8.06,8.06,0,0,1,.37,2.51,8,8,0,0,1-1.12,4.28,7.38,7.38,0,0,1-3,2.77,15.57,15.57,0,0,1-3.88,1.36,21.15,21.15,0,0,1-4.31.42,17.5,17.5,0,0,1-7.68-1.67,10.74,10.74,0,0,1-5.14-5.14l2.68-1.45a8.84,8.84,0,0,0,4.24,4,14,14,0,0,0,5.9,1.27,18.86,18.86,0,0,0,3.08-.24,12.92,12.92,0,0,0,2.9-.86,5.28,5.28,0,0,0,2.32-1.84,5,5,0,0,0,.88-3,4.48,4.48,0,0,0-.72-2.56,5,5,0,0,0-2.24-1.74,20,20,0,0,0-2.88-1c-.91-.23-2.09-.48-3.56-.75s-2.56-.45-3.46-.65a23.55,23.55,0,0,1-3.06-1,9.05,9.05,0,0,1-2.65-1.45,6.76,6.76,0,0,1-2.33-5.2,7.18,7.18,0,0,1,1-4,7.44,7.44,0,0,1,2.86-2.68A14.69,14.69,0,0,1,435,95.87a18.64,18.64,0,0,1,4.06-.44Q447.05,95.43,450.52,100.79Z"/></g></g></svg>