<svg width="159" height="32" viewBox="0 0 159 32" fill="none" xmlns="http://www.w3.org/2000/svg">
<path d="M79.1038 0.151123H77.2924V8.72885H79.1038V0.151123Z" fill="#0B0404"/>
<path d="M88.2433 4.58559L86.9621 3.30604L78.1981 12.0586L69.434 3.30604L68.1528 4.58559L78.1981 14.6177L88.2433 4.58559Z" fill="#0B0404"/>
<path d="M0 31.4452V12.066H12.9699C14.8624 12.066 16.3848 12.1585 17.5372 12.3435C18.6979 12.5286 19.5768 12.8398 20.174 13.2772C20.7712 13.7061 21.175 14.2907 21.3852 15.0309C21.5955 15.7627 21.7006 16.6753 21.7006 17.7687V18.2734C21.7006 19.3164 21.5913 20.2037 21.3726 20.9355C21.1623 21.6588 20.7502 22.2434 20.1362 22.6892C19.5222 23.135 18.6348 23.463 17.4741 23.6733C16.3133 23.8752 14.7867 23.9761 12.8942 23.9761H2.4224V31.4452H0ZM19.2783 17.7687C19.2783 16.9697 19.2026 16.3304 19.0512 15.851C18.8998 15.3715 18.597 15.0099 18.1428 14.7659C17.6886 14.522 17.0115 14.3622 16.1115 14.2865C15.2115 14.2024 14.0087 14.1603 12.5031 14.1603H2.4224V21.8817H12.5031C14.0087 21.8817 15.2115 21.8355 16.1115 21.743C17.0115 21.642 17.6886 21.4654 18.1428 21.2131C18.597 20.9523 18.8998 20.5864 19.0512 20.1154C19.2026 19.636 19.2783 19.022 19.2783 18.2734V17.7687Z" fill="#0B0404"/>
<path d="M40.9158 27.1303C40.9158 28.2153 40.7518 29.069 40.4238 29.6915C40.1041 30.3139 39.6121 30.7681 38.9476 31.054C38.2831 31.34 37.4336 31.5209 36.3991 31.5966C35.3729 31.6807 34.1491 31.7227 32.7276 31.7227C31.1043 31.7227 29.7248 31.6386 28.5893 31.4704C27.4623 31.3106 26.5497 30.9783 25.8515 30.4737C25.1618 29.9606 24.6572 29.1952 24.3375 28.1775C24.0263 27.1597 23.8707 25.8013 23.8707 24.1023C23.8707 22.4537 24.0221 21.1332 24.3249 20.1406C24.6361 19.1481 25.1366 18.3995 25.8263 17.8949C26.516 17.3902 27.4202 17.0538 28.5389 16.8855C29.666 16.7173 31.0412 16.6332 32.6645 16.6332C34.5234 16.6332 36.0626 16.7636 37.2822 17.0243C38.5018 17.2851 39.4102 17.7813 40.0074 18.5131C40.613 19.2449 40.9158 20.3173 40.9158 21.7303V24.8467H26.3057C26.3141 25.9233 26.3898 26.7854 26.5328 27.4331C26.6758 28.0807 26.9618 28.5686 27.3908 28.8966C27.8197 29.2246 28.459 29.4433 29.3085 29.5527C30.1664 29.6536 31.3061 29.7041 32.7276 29.7041C34.0061 29.7041 35.0365 29.6788 35.8187 29.6284C36.6093 29.5779 37.2065 29.4686 37.6103 29.3003C38.0224 29.1237 38.3 28.863 38.443 28.5181C38.5859 28.1732 38.6574 27.7106 38.6574 27.1303H40.9158ZM32.6645 18.6519C31.2935 18.6519 30.1875 18.7023 29.3463 18.8033C28.5136 18.9042 27.8786 19.1019 27.4412 19.3963C27.0039 19.6822 26.7053 20.1112 26.5454 20.6832C26.394 21.2551 26.3141 22.0079 26.3057 22.9415H38.5944V21.7303C38.5944 21.1247 38.5229 20.6243 38.3799 20.229C38.2453 19.8252 37.9761 19.5098 37.5724 19.2827C37.1687 19.0472 36.5715 18.8832 35.7808 18.7907C34.9986 18.6981 33.9598 18.6519 32.6645 18.6519Z" fill="#0B0404"/>
<path d="M51.7283 31.7227C49.9872 31.7227 48.5489 31.6302 47.4134 31.4452C46.2863 31.2685 45.4452 30.8732 44.8901 30.2592C44.3433 29.6452 44.07 28.6905 44.07 27.3952C44.07 26.0747 44.3265 25.1074 44.8396 24.4934C45.3611 23.871 46.1812 23.4672 47.2998 23.2822C48.4269 23.0971 49.9031 23.0046 51.7283 23.0046C53.2086 23.0046 54.4493 23.0383 55.4502 23.1056C56.4511 23.1728 57.3469 23.2906 58.1376 23.4588C58.1207 22.3401 58.045 21.4612 57.9105 20.8219C57.7759 20.1743 57.5235 19.6949 57.1535 19.3836C56.7834 19.0724 56.2408 18.8748 55.5259 18.7907C54.8194 18.6981 53.8773 18.6519 52.6998 18.6519C51.354 18.6519 50.2984 18.6813 49.533 18.7402C48.776 18.7991 48.2251 18.9042 47.8802 19.0556C47.5354 19.207 47.3167 19.4257 47.2241 19.7117C47.14 19.9977 47.098 20.3677 47.098 20.8219H44.6756C44.6756 19.9135 44.7975 19.1818 45.0415 18.6266C45.2938 18.0715 45.7186 17.651 46.3157 17.365C46.9129 17.079 47.7288 16.8855 48.7634 16.7846C49.8064 16.6837 51.1185 16.6332 52.6998 16.6332C54.3988 16.6332 55.7656 16.7426 56.8002 16.9612C57.8432 17.1799 58.6338 17.5753 59.1721 18.1472C59.7188 18.7108 60.0847 19.5014 60.2698 20.5191C60.4632 21.5369 60.56 22.849 60.56 24.4555V31.4452H58.1376V30.4485C57.8516 30.7512 57.4563 30.9952 56.9516 31.1802C56.4469 31.3653 55.774 31.4998 54.9329 31.5839C54.1002 31.6765 53.032 31.7227 51.7283 31.7227ZM51.7283 29.7545C53.1666 29.7545 54.3147 29.7377 55.1726 29.7041C56.0306 29.6704 56.6698 29.5779 57.0904 29.4265C57.5193 29.2751 57.8011 29.0312 57.9357 28.6947C58.0703 28.3583 58.1376 27.8873 58.1376 27.2817V25.0485L51.7283 24.9728C50.5928 24.956 49.676 24.9728 48.9779 25.0233C48.2882 25.0653 47.7625 25.1663 47.4008 25.3261C47.0391 25.4775 46.7952 25.7214 46.669 26.0579C46.5513 26.3859 46.4924 26.8317 46.4924 27.3952C46.4924 27.9419 46.5513 28.3751 46.669 28.6947C46.7952 29.0144 47.0391 29.2499 47.4008 29.4013C47.7625 29.5527 48.2882 29.6494 48.9779 29.6915C49.676 29.7335 50.5928 29.7545 51.7283 29.7545Z" fill="#0B0404"/>
<path d="M63.9917 31.4452V16.9108H66.4141V18.9168C66.6832 18.4879 66.9524 18.1304 67.2215 17.8444C67.4991 17.5584 67.8566 17.3313 68.294 17.1631C68.7398 16.9949 69.3411 16.8771 70.0981 16.8098C70.8551 16.7341 71.8519 16.6963 73.0883 16.6963V18.7276C71.4229 18.7276 70.1318 18.7865 69.215 18.9042C68.3066 19.022 67.6547 19.2238 67.2594 19.5098C66.8641 19.7874 66.6244 20.1743 66.5402 20.6705C66.4561 21.1668 66.4141 21.7976 66.4141 22.563V31.4452H63.9917Z" fill="#0B0404"/>
<path d="M83.4466 22.0079V21.5032C83.4466 19.7874 83.5307 18.3491 83.6989 17.1883C83.8671 16.0192 84.1573 15.0687 84.5695 14.337C84.9816 13.6052 85.5409 13.0459 86.2475 12.659C86.9624 12.2721 87.8582 12.0113 88.9348 11.8767C90.0114 11.7337 91.3067 11.6622 92.8207 11.6622H97.5646C99.5496 11.6622 101.16 11.7379 102.397 11.8893C103.642 12.0407 104.596 12.3309 105.261 12.7599C105.934 13.1889 106.396 13.8155 106.649 14.6398C106.901 15.4557 107.027 16.5281 107.027 17.857H104.605C104.605 16.8561 104.516 16.0781 104.34 15.5229C104.163 14.9594 103.831 14.5557 103.343 14.3117C102.855 14.0594 102.144 13.9038 101.211 13.8449C100.286 13.786 99.0702 13.7566 97.5646 13.7566H92.8207C91.618 13.7566 90.6044 13.7945 89.7801 13.8702C88.9558 13.9375 88.283 14.1015 87.7615 14.3622C87.2484 14.6145 86.8531 15.0183 86.5755 15.5734C86.3063 16.1285 86.1213 16.8855 86.0204 17.8444C85.9194 18.8033 85.869 20.0229 85.869 21.5032V22.0079C85.869 23.4378 85.9194 24.6238 86.0204 25.5658C86.1213 26.5078 86.3063 27.2606 86.5755 27.8242C86.8531 28.3877 87.2484 28.8083 87.7615 29.0858C88.283 29.3634 88.9558 29.5443 89.7801 29.6284C90.6044 29.7125 91.618 29.7545 92.8207 29.7545H98.4099C99.7978 29.7545 100.916 29.6999 101.766 29.5905C102.615 29.4728 103.259 29.2288 103.696 28.8588C104.142 28.4803 104.441 27.9083 104.592 27.1429C104.743 26.3691 104.819 25.3261 104.819 24.014V23.2696H95.5459V21.2509H107.242V24.014C107.242 25.6541 107.103 26.9873 106.825 28.0134C106.548 29.0396 106.077 29.8344 105.412 30.398C104.756 30.9531 103.856 31.3316 102.712 31.5335C101.577 31.7438 100.143 31.8489 98.4099 31.8489H92.8207C90.9282 31.8489 89.3722 31.7185 88.1526 31.4578C86.933 31.2054 85.9783 30.7344 85.2886 30.0447C84.6073 29.355 84.1279 28.3625 83.8503 27.0672C83.5811 25.7719 83.4466 24.0854 83.4466 22.0079Z" fill="#0B0404"/>
<path d="M127.567 27.1303C127.567 28.2153 127.403 29.069 127.075 29.6915C126.755 30.3139 126.263 30.7681 125.599 31.054C124.934 31.34 124.085 31.5209 123.05 31.5966C122.024 31.6807 120.8 31.7227 119.379 31.7227C117.755 31.7227 116.376 31.6386 115.241 31.4704C114.113 31.3106 113.201 30.9783 112.503 30.4737C111.813 29.9606 111.308 29.1952 110.989 28.1775C110.678 27.1597 110.522 25.8013 110.522 24.1023C110.522 22.4537 110.673 21.1332 110.976 20.1406C111.287 19.1481 111.788 18.3995 112.477 17.8949C113.167 17.3902 114.071 17.0538 115.19 16.8855C116.317 16.7173 117.692 16.6332 119.316 16.6332C121.175 16.6332 122.714 16.7636 123.933 17.0243C125.153 17.2851 126.061 17.7813 126.659 18.5131C127.264 19.2449 127.567 20.3173 127.567 21.7303V24.8467H112.957C112.965 25.9233 113.041 26.7854 113.184 27.4331C113.327 28.0807 113.613 28.5686 114.042 28.8966C114.471 29.2246 115.11 29.4433 115.96 29.5527C116.818 29.6536 117.957 29.7041 119.379 29.7041C120.657 29.7041 121.688 29.6788 122.47 29.6284C123.261 29.5779 123.858 29.4686 124.261 29.3003C124.674 29.1237 124.951 28.863 125.094 28.5181C125.237 28.1732 125.309 27.7106 125.309 27.1303H127.567ZM119.316 18.6519C117.945 18.6519 116.839 18.7023 115.998 18.8033C115.165 18.9042 114.53 19.1019 114.092 19.3963C113.655 19.6822 113.356 20.1112 113.197 20.6832C113.045 21.2551 112.965 22.0079 112.957 22.9415H125.246V21.7303C125.246 21.1247 125.174 20.6243 125.031 20.229C124.896 19.8252 124.627 19.5098 124.224 19.2827C123.82 19.0472 123.223 18.8832 122.432 18.7907C121.65 18.6981 120.611 18.6519 119.316 18.6519Z" fill="#0B0404"/>
<path d="M130.759 31.4452V16.9108H133.181V18.715C133.543 18.2271 133.976 17.8192 134.481 17.4911C134.986 17.1631 135.629 16.9192 136.411 16.7594C137.202 16.5912 138.211 16.507 139.439 16.507C140.962 16.507 142.202 16.7131 143.161 17.1253C144.12 17.5374 144.827 18.2481 145.281 19.2575C145.693 18.6182 146.189 18.0967 146.77 17.693C147.35 17.2809 148.077 16.9823 148.952 16.7972C149.835 16.6038 150.92 16.507 152.207 16.507C153.738 16.507 154.983 16.7173 155.942 17.1379C156.901 17.55 157.603 18.2566 158.049 19.2575C158.503 20.2584 158.73 21.6294 158.73 23.3705V31.4452H156.308V23.3705C156.308 22.0415 156.169 21.0322 155.891 20.3425C155.614 19.6444 155.151 19.1692 154.504 18.9168C153.864 18.6561 152.998 18.5257 151.905 18.5257C149.76 18.5257 148.229 18.8411 147.312 19.472C146.404 20.1028 145.949 21.1332 145.949 22.563V22.5504C145.958 22.8112 145.962 23.0845 145.962 23.3705V31.4452H143.54V23.3705C143.54 22.0415 143.401 21.0322 143.123 20.3425C142.846 19.6444 142.383 19.1692 141.736 18.9168C141.096 18.6561 140.23 18.5257 139.136 18.5257C136.992 18.5257 135.461 18.8411 134.544 19.472C133.636 20.1028 133.181 21.1332 133.181 22.563V31.4452H130.759Z" fill="#0B0404"/>
<path d="M76.9868 31.4456V16.6435H79.4092V31.4456H76.9868Z" fill="#0B0404"/>
</svg>
