<svg width="37" height="10" viewBox="0 0 37 10" fill="none" xmlns="http://www.w3.org/2000/svg">
<path fill-rule="evenodd" clip-rule="evenodd" d="M4.60165 0.000488281L0.500122 9.07703H5.41023L6.01894 7.62985H7.41031L8.01902 9.07703H13.4237V7.9725L13.9053 9.07703H16.701L17.1825 7.94916V9.07703H28.4227L29.7895 7.66744L31.0693 9.07703L36.8425 9.08871L32.728 4.5641L36.8425 0.000488281H31.1588L29.8284 1.38404L28.5889 0.000488281H16.361L15.311 2.34322L14.2364 0.000488281H9.33651V1.06744L8.79144 0.000488281H4.60165ZM21.3866 1.28937H27.8412L29.8154 3.42185L31.8532 1.28937H33.8274L30.8278 4.56282L33.8274 7.79855H31.7637L29.7895 5.6413L27.7413 7.79855H21.3866V1.28937ZM22.9805 3.82683V2.63674H27.008L28.7654 4.53818L26.9302 6.45H22.9805V5.15201H26.5018V3.82683H22.9805ZM5.55173 1.28937H7.94514L10.6657 7.44423V1.28937H13.2876L15.3889 5.70237L17.3255 1.28937H19.9343V7.80239H18.3469L18.3339 2.69883L16.0197 7.80239H14.5997L12.2724 2.69883V7.80239H9.00682L8.38772 6.34226H5.04295L4.42513 7.80111H2.67545L5.55173 1.28937ZM5.61407 4.99245L6.71604 2.39134L7.81673 4.99245H5.61407Z" fill="white"/>
</svg>
