<svg width="33" height="32" viewBox="0 0 33 32" fill="none" xmlns="http://www.w3.org/2000/svg">
<path d="M29.8334 16.0001V8.66675C29.8334 5.35304 27.1471 2.66675 23.8334 2.66675H9.16675C5.85304 2.66675 3.16675 5.35304 3.16675 8.66674V23.3334C3.16675 26.6471 5.85304 29.3334 9.16675 29.3334H12.5001" stroke="white" stroke-linecap="round"/>
<path d="M16.5 9.33325V15.9999L12.5 17.3333" stroke="white" stroke-linecap="round" stroke-linejoin="round"/>
<path d="M16.4998 24.6666V23.9999C16.4998 22.5272 17.6937 21.3333 19.1664 21.3333V21.3333C20.6392 21.3333 21.8331 22.5272 21.8331 23.9999V23.9999C21.8331 24.8393 21.4379 25.6296 20.7664 26.1333L16.4998 29.3333H21.8331" stroke="white" stroke-linecap="round" stroke-linejoin="round"/>
<path d="M24.5 21.3333V22.3333C24.5 23.9901 25.8431 25.3333 27.5 25.3333H29.8333M29.8333 25.3333V21.3333M29.8333 25.3333V29.3333" stroke="white" stroke-linecap="round" stroke-linejoin="round"/>
<path d="M29.8334 15.9997L27.1667 13.333" stroke="white" stroke-linecap="round" stroke-linejoin="round"/>
</svg>
