<svg width="40" height="8" viewBox="0 0 40 8" fill="none" xmlns="http://www.w3.org/2000/svg">
<path d="M39.2842 0.918656C39.2842 0.804532 39.2047 0.747925 39.0787 0.747925H38.8961V1.29485H39.033V1.07845L39.1928 1.29485H39.3526L39.17 1.0674C39.2385 1.05647 39.2842 0.998042 39.2842 0.918656ZM39.0567 0.998155H39.0339V0.850204H39.0567C39.1252 0.850204 39.159 0.872983 39.159 0.918656C39.159 0.975262 39.1252 0.998155 39.0567 0.998155Z" fill="white"/>
<path d="M39.1004 0.543945C38.8385 0.543945 38.6221 0.760348 38.6221 1.02242C38.6221 1.2845 38.8385 1.5009 39.1004 1.5009C39.3625 1.5009 39.5789 1.2845 39.5789 1.02242C39.5789 0.760348 39.3625 0.543945 39.1004 0.543945ZM39.1004 1.42061C38.8951 1.42061 38.7133 1.24976 38.7133 1.02151C38.7133 0.793378 38.884 0.622534 39.1004 0.622534C39.3059 0.622534 39.4766 0.80511 39.4766 1.02151C39.4766 1.23792 39.3059 1.42061 39.1004 1.42061Z" fill="white"/>
<path d="M1.78786 0.679688H0V6.94432H1.78786C2.73293 6.94432 3.4168 6.71699 4.02036 6.22666C4.73804 5.63406 5.15901 4.74567 5.15901 3.82334C5.14802 1.96706 3.76929 0.679688 1.78786 0.679688ZM3.22322 5.39488C2.83606 5.73634 2.34662 5.89614 1.54864 5.89614H1.21811V1.75066H1.54864C2.33478 1.75066 2.81324 1.88756 3.22322 2.25191C3.64503 2.62811 3.89525 3.20887 3.89525 3.81241C3.89525 4.41594 3.64503 5.01868 3.22322 5.39488Z" fill="white"/>
<path d="M6.93576 0.679688H5.7168V6.94432H6.93576V0.679688Z" fill="white"/>
<path d="M9.91941 3.08324C9.19071 2.81023 8.9743 2.62766 8.9743 2.29713C8.9743 1.89815 9.36144 1.60225 9.88559 1.60225C10.2499 1.60225 10.5576 1.7502 10.8653 2.11455L11.5035 1.28277C10.9794 0.827073 10.353 0.587891 9.65814 0.587891C8.55334 0.587891 7.69954 1.36216 7.69954 2.38756C7.69954 3.25318 8.09854 3.69703 9.23718 4.10785C9.71565 4.27859 9.95484 4.39271 10.08 4.46116C10.3192 4.62096 10.4444 4.84829 10.4444 5.11037C10.4444 5.62267 10.0453 5.99876 9.49925 5.99876C8.91849 5.99876 8.45106 5.70297 8.16701 5.16698L7.38086 5.93031C7.93877 6.76209 8.62259 7.12645 9.54492 7.12645C10.8095 7.12645 11.709 6.28373 11.709 5.0647C11.7317 4.05113 11.31 3.59555 9.92101 3.08324H9.91941Z" fill="white"/>
<path d="M12.1075 3.8237C12.1075 5.66905 13.5539 7.09264 15.4102 7.09264C15.9343 7.09264 16.3899 6.99036 16.9361 6.72828V5.29296C16.4465 5.78238 16.0137 5.97588 15.4668 5.97588C14.2369 5.97588 13.3595 5.08749 13.3595 3.81186C13.3595 2.60478 14.2589 1.65887 15.4094 1.65887C15.9902 1.65887 16.4347 1.86423 16.9352 2.36469V0.92937C16.4001 0.65636 15.9554 0.542236 15.4314 0.542236C13.5979 0.542236 12.1058 2.00034 12.1058 3.82199L12.1075 3.8237Z" fill="white"/>
<path d="M26.6407 4.89442L24.966 0.679688H23.6338L26.2872 7.10412H26.9483L29.6474 0.679688H28.3262L26.6407 4.89442Z" fill="white"/>
<path d="M30.2051 6.94432H33.6675V5.88509H31.4241V4.19954H33.5881V3.14042H31.4241V1.75066H33.6675V0.679688H30.2051V6.94432Z" fill="white"/>
<path d="M38.5073 2.53773C38.5073 1.36437 37.6984 0.692383 36.2867 0.692383H34.476V6.95702H35.695V4.43968H35.8547L37.5403 6.95702H39.0441L37.0737 4.31463C37.9959 4.121 38.509 3.49457 38.509 2.53773H38.5073ZM36.0475 3.57407H35.6941V1.67212H36.0703C36.8336 1.67212 37.2436 1.9908 37.2436 2.60618C37.2436 3.22156 36.8336 3.57407 36.0475 3.57407Z" fill="white"/>
<path d="M23.9785 4.37161C24.2738 2.55223 23.0384 0.837981 21.219 0.542648C19.3996 0.247315 17.6854 1.48275 17.3901 3.30213C17.0947 5.12151 18.3303 6.83576 20.1495 7.13109C21.9689 7.42642 23.6832 6.19088 23.9785 4.37161Z" fill="url(#paint0_linear_13829_2267)"/>
<path opacity="0.65" d="M23.9785 4.37161C24.2738 2.55223 23.0384 0.837981 21.219 0.542648C19.3996 0.247315 17.6854 1.48275 17.3901 3.30213C17.0947 5.12151 18.3303 6.83576 20.1495 7.13109C21.9689 7.42642 23.6832 6.19088 23.9785 4.37161Z" fill="url(#paint1_linear_13829_2267)"/>
<defs>
<linearGradient id="paint0_linear_13829_2267" x1="22.3926" y1="6.50648" x2="20.0858" y2="2.89449" gradientUnits="userSpaceOnUse">
<stop stop-color="#F89F20"/>
<stop offset="0.25" stop-color="#F79A20"/>
<stop offset="0.53" stop-color="#F68D20"/>
<stop offset="0.62" stop-color="#F58720"/>
<stop offset="0.72" stop-color="#F48120"/>
<stop offset="1" stop-color="#F37521"/>
</linearGradient>
<linearGradient id="paint1_linear_13829_2267" x1="22.0283" y1="6.45751" x2="18.6572" y2="-0.131846" gradientUnits="userSpaceOnUse">
<stop stop-color="#F58720"/>
<stop offset="0.36" stop-color="#E16F27"/>
<stop offset="0.7" stop-color="#D4602C"/>
<stop offset="0.98" stop-color="#D05B2E"/>
</linearGradient>
</defs>
</svg>
