<svg width="45" height="25" viewBox="0 0 45 25" fill="none" xmlns="http://www.w3.org/2000/svg">
<path d="M40.6721 0.46582H4.33205C1.94681 0.46582 0.0131836 2.32082 0.0131836 4.60908V20.2942C0.0131836 22.5825 1.94681 24.4375 4.33205 24.4375H40.6721C43.0573 24.4375 44.991 22.5825 44.991 20.2942V4.60908C44.991 2.32082 43.0573 0.46582 40.6721 0.46582Z" fill="#FFB3C7"/>
<path fill-rule="evenodd" clip-rule="evenodd" d="M40.7801 14.5362C40.1916 14.5362 39.7146 14.998 39.7146 15.5677C39.7146 16.1372 40.1916 16.5991 40.7801 16.5991C41.3685 16.5991 41.8456 16.1373 41.8456 15.5677C41.8456 14.998 41.3685 14.5362 40.7801 14.5362ZM37.2745 13.7388C37.2745 12.9589 36.5859 12.3267 35.7364 12.3267C34.8869 12.3267 34.1981 12.9589 34.1981 13.7388C34.1981 14.5187 34.8868 15.151 35.7364 15.151C36.586 15.151 37.2745 14.5187 37.2745 13.7388ZM37.2802 10.9943H38.9778V16.4831H37.2802V16.1323C36.8006 16.4489 36.2217 16.635 35.5973 16.635C33.9451 16.635 32.6055 15.3383 32.6055 13.7387C32.6055 12.1392 33.9451 10.8426 35.5973 10.8426C36.2217 10.8426 36.8006 11.0287 37.2802 11.3454V10.9943ZM23.6949 11.7093V10.9944H21.9569V16.483H23.6988V13.9205C23.6988 13.0559 24.6668 12.5912 25.3385 12.5912C25.3454 12.5912 25.3518 12.5918 25.3587 12.5919V10.9948C24.6693 10.9948 24.0352 11.2805 23.6949 11.7093ZM19.3655 13.7388C19.3655 12.9589 18.6767 12.3268 17.8272 12.3268C16.9777 12.3268 16.289 12.9589 16.289 13.7388C16.289 14.5187 16.9777 15.151 17.8272 15.151C18.6768 15.151 19.3655 14.5187 19.3655 13.7388ZM19.371 10.9943H21.0687V16.4831H19.371V16.1323C18.8915 16.4489 18.3126 16.635 17.6883 16.635C16.0359 16.635 14.6964 15.3383 14.6964 13.7388C14.6964 12.1392 16.0359 10.8426 17.6883 10.8426C18.3126 10.8426 18.8915 11.0287 19.371 11.3454V10.9943ZM29.589 10.8467C28.9109 10.8467 28.2691 11.0505 27.84 11.6128V10.9947H26.1497V16.4831H27.8608V13.5987C27.8608 12.7641 28.4389 12.3554 29.1351 12.3554C29.8812 12.3554 30.3101 12.7868 30.3101 13.5874V16.4831H32.0057V12.9927C32.0057 11.7154 30.9566 10.8467 29.589 10.8467ZM12.2236 16.4831H14.0004V8.54839H12.2236V16.4831ZM4.41833 16.4853H6.29981V8.54696H4.41833V16.4853ZM10.9991 8.54696C10.9991 10.2655 10.3072 11.8643 9.07443 13.0526L11.6752 16.4856H9.3513L6.52489 12.7547L7.25434 12.2258C8.46405 11.3486 9.1579 10.0078 9.1579 8.54694L10.9991 8.54696Z" fill="#0B0404"/>
</svg>
