<svg width="31" height="19" viewBox="0 0 31 19" fill="none" xmlns="http://www.w3.org/2000/svg">
<path d="M30.5 9.396C30.5 14.5205 26.3541 18.6664 21.2296 18.6664C19.0665 18.6664 17.0837 17.9196 15.5129 16.6836C17.676 14.984 19.0408 12.3574 19.0408 9.396C19.0408 6.43462 17.6502 3.80802 15.5129 2.10845C17.0837 0.872395 19.0665 0.12561 21.2296 0.12561C26.3541 0.12561 30.5 4.29729 30.5 9.396Z" fill="#F79E1B"/>
<path d="M15.5129 2.10845C15.5129 2.10845 15.5129 2.10845 15.5129 2.10845C17.6502 3.80802 19.0408 6.43462 19.0408 9.396C19.0408 12.3574 17.676 14.984 15.5129 16.6836L15.487 16.6836C13.3497 15.0097 11.9592 12.3574 11.9592 9.39605C11.9592 6.43468 13.3498 3.80807 15.4871 2.1085C15.4871 2.10848 15.4871 2.10852 15.4871 2.1085L15.5129 2.10845Z" fill="#FF5F00"/>
<path d="M11.9592 9.39605C11.9592 6.43468 13.3498 3.80807 15.4871 2.1085C13.9163 0.872448 11.9335 0.12565 9.77039 0.12565C4.64592 0.12565 0.5 4.27157 0.5 9.39604C0.5 14.5205 4.64592 18.6664 9.77039 18.6664C11.9335 18.6664 13.9162 17.9196 15.487 16.6836C13.3497 15.0097 11.9592 12.3574 11.9592 9.39605Z" fill="#EB001B"/>
</svg>
