<svg width="32" height="32" viewBox="0 0 32 32" fill="none" xmlns="http://www.w3.org/2000/svg">
<rect x="29.3335" y="3.99976" width="24" height="26.6667" rx="6" transform="rotate(90 29.3335 3.99976)" stroke="white"/>
<path d="M15.9999 13.0185C15.1816 13.751 14.6666 14.8153 14.6666 16C14.6666 17.1847 15.1816 18.249 15.9999 18.9815M15.9999 13.0185C16.7076 12.3851 17.6421 12 18.6666 12C20.8757 12 22.6666 13.7909 22.6666 16C22.6666 18.2091 20.8757 20 18.6666 20C17.6421 20 16.7076 19.6149 15.9999 18.9815M15.9999 13.0185C15.2922 12.3851 14.3577 12 13.3333 12C11.1241 12 9.33325 13.7909 9.33325 16C9.33325 18.2091 11.1241 20 13.3333 20C14.3577 20 15.2922 19.6149 15.9999 18.9815" stroke="white"/>
</svg>
