<svg width="18" height="21" viewBox="0 0 18 21" fill="none" xmlns="http://www.w3.org/2000/svg">
<path fill-rule="evenodd" clip-rule="evenodd" d="M15.3618 5.79684C15.3436 5.91467 15.3225 6.03508 15.299 6.15881C14.488 10.3398 11.7132 11.7842 8.16946 11.7842H6.36509C5.93167 11.7842 5.56638 12.1 5.49898 12.5293L4.31351 20.0794C4.26962 20.3613 4.48596 20.6152 4.76915 20.6152H7.96947C8.34834 20.6152 8.67028 20.3388 8.72997 19.9636L8.76137 19.8004L9.36393 15.9611L9.40268 15.7505C9.46164 15.374 9.78431 15.0974 10.1632 15.0974H10.6418C13.7424 15.0974 16.1697 13.8335 16.8791 10.1759C17.1754 8.64796 17.022 7.37213 16.2378 6.47486C16.0006 6.20435 15.7062 5.97976 15.3618 5.79684Z" fill="#298FC2"/>
<path fill-rule="evenodd" clip-rule="evenodd" d="M14.5131 5.45724C14.3891 5.42091 14.2613 5.38809 14.1302 5.3584C13.9983 5.32945 13.8633 5.30382 13.7243 5.28132C13.2378 5.2024 12.7046 5.16497 12.1337 5.16497H7.31337C7.19455 5.16497 7.08179 5.19189 6.98096 5.24057C6.75856 5.34789 6.59346 5.55921 6.55342 5.81792L5.52791 12.3393L5.49853 12.5294C5.56593 12.1001 5.93121 11.7842 6.36463 11.7842H8.16901C11.7127 11.7842 14.4875 10.3391 15.2985 6.15886C15.3228 6.03513 15.3432 5.91472 15.3614 5.79689C15.1562 5.68755 14.934 5.59406 14.6947 5.5144C14.6356 5.49467 14.5746 5.47568 14.5131 5.45724Z" fill="#22284F"/>
<path fill-rule="evenodd" clip-rule="evenodd" d="M6.55342 5.81792C6.59346 5.55921 6.7588 5.34791 6.9812 5.24133C7.08276 5.19246 7.19479 5.16554 7.31361 5.16554H12.1339C12.7049 5.16554 13.238 5.20316 13.7245 5.28208C13.8635 5.30439 13.9985 5.33021 14.1304 5.35916C14.2615 5.38866 14.3893 5.42167 14.5133 5.45781C14.5748 5.47625 14.6358 5.49542 14.6955 5.51442C14.9348 5.59408 15.1572 5.6883 15.3623 5.79691C15.6036 4.25186 15.3603 3.19988 14.5284 2.2473C13.611 1.19845 11.9556 0.749634 9.83717 0.749634H3.68704C3.25436 0.749634 2.88522 1.0655 2.81837 1.49551L0.2568 17.7985C0.206296 18.121 0.454042 18.412 0.778003 18.412H4.57482L6.55342 5.81792Z" fill="#28356A"/>
</svg>
