<svg width="32" height="32" viewBox="0 0 32 32" fill="none" xmlns="http://www.w3.org/2000/svg">
<path d="M5.33334 16V26.3333C5.33334 27.9902 6.67649 29.3333 8.33335 29.3333H23.6667C25.3235 29.3333 26.6667 27.9902 26.6667 26.3333V16" stroke="white"/>
<path d="M16 10.6667H26.1667C26.4814 10.6667 26.7778 10.8149 26.9667 11.0667L29.4667 14.4C29.9611 15.0593 29.4907 16 28.6667 16H20.5C20.1852 16 19.8889 15.8518 19.7 15.6L16 10.6667Z" stroke="white"/>
<path d="M16 10.6667H5.83333C5.51858 10.6667 5.22219 10.8149 5.03333 11.0667L2.53333 14.4C2.0389 15.0593 2.50929 16 3.33333 16H11.5C11.8148 16 12.1111 15.8518 12.3 15.6L16 10.6667Z" stroke="white"/>
<path d="M12.7811 5.33335L10.6667 2.66669L19.3334 2.66669C20.438 2.66669 21.3334 3.56212 21.3334 4.66669V4.66669C21.3334 5.77126 20.438 6.66669 19.3334 6.66669L17.3334 6.66669" stroke="white" stroke-linecap="round" stroke-linejoin="round"/>
</svg>
