<svg width="32" height="32" viewBox="0 0 32 32" fill="none" xmlns="http://www.w3.org/2000/svg">
<path d="M5.3335 13.333V22.1456C5.3335 23.2819 5.9755 24.3207 6.99186 24.8289L14.6585 28.6622C15.5031 29.0845 16.4972 29.0845 17.3418 28.6622L25.0085 24.8289C26.0248 24.3207 26.6668 23.2819 26.6668 22.1456V13.333" stroke="white"/>
<path d="M26.6668 8.00008L17.3418 3.33757C16.4972 2.91528 15.5031 2.91528 14.6585 3.33757L5.3335 8.00008L16.0002 13.3334L26.6668 8.00008Z" stroke="white" stroke-linecap="round" stroke-linejoin="round"/>
<path d="M26.6664 8.00024L15.9998 13.3336L18.6664 17.3336L29.3331 12.0002L26.6664 8.00024Z" stroke="white" stroke-linecap="round" stroke-linejoin="round"/>
<path d="M5.33309 8.00024L15.9998 13.3336L13.3331 17.3336L2.66642 12.0002L5.33309 8.00024Z" stroke="white" stroke-linecap="round" stroke-linejoin="round"/>
</svg>
