<svg width="35" height="13" viewBox="0 0 35 13" fill="none" xmlns="http://www.w3.org/2000/svg">
<path d="M25.4675 1.33705C24.9132 1.11717 24.0342 0.87439 22.9472 0.87439C20.1723 0.87439 18.2182 2.35411 18.2062 4.46966C18.1832 6.03051 19.6053 6.89745 20.6689 7.41789C21.756 7.9497 22.1256 8.29681 22.1256 8.77084C22.1145 9.49887 21.2471 9.83446 20.4381 9.83446C19.3163 9.83446 18.7152 9.66144 17.8017 9.2564L17.4317 9.08277L17.0384 11.5222C17.6975 11.8225 18.9117 12.0889 20.1723 12.1006C23.1207 12.1006 25.0402 10.6438 25.0629 8.38931C25.0741 7.15221 24.3232 6.2043 22.7043 5.42972C21.7215 4.93248 21.1196 4.5972 21.1196 4.08844C21.1311 3.62593 21.6287 3.15221 22.7381 3.15221C23.6516 3.129 24.3227 3.34858 24.8312 3.56831L25.0853 3.68371L25.4675 1.33705Z" fill="white"/>
<path d="M15.2812 11.9386H12.4713L14.2288 1.07138H17.0386L15.2812 11.9386Z" fill="white"/>
<path fill-rule="evenodd" clip-rule="evenodd" d="M32.6706 1.07138H30.4971C29.8269 1.07138 29.3176 1.26775 29.0285 1.97304L24.8547 11.9385H27.803C27.803 11.9385 28.2884 10.5972 28.3928 10.3083H32.0005C32.0812 10.6899 32.3358 11.9385 32.3358 11.9385H34.9375L32.6706 1.07138ZM29.2021 8.08875C29.4335 7.46444 30.3239 5.04818 30.3239 5.04818C30.3193 5.05748 30.3555 4.95709 30.4095 4.8074L30.4101 4.80557L30.4106 4.80437C30.4912 4.58077 30.611 4.24888 30.6936 4.00777L30.89 4.94415C30.89 4.94415 31.4221 7.54542 31.5377 8.08875H29.2021Z" fill="white"/>
<path d="M10.1243 1.07138L7.37248 8.48181L7.07177 6.97889L7.07149 6.97795L6.08898 1.98487C5.92717 1.2908 5.42994 1.09427 4.81715 1.07138H0.296251L0.25 1.29095C1.35263 1.57292 2.33883 1.97923 3.20295 2.48442L5.70745 11.9271H8.67887L13.0956 1.07138H10.1243Z" fill="white"/>
</svg>
